<mxfile host="Electron" agent="Mozilla/5.0 (Windows NT 10.0; Win64; x64) AppleWebKit/537.36 (KHTML, like Gecko) draw.io/24.7.8 Chrome/128.0.6613.36 Electron/32.0.1 Safari/537.36" version="24.7.8" pages="2">
  <diagram id="l2wqmPafWB9eKFfRZcFo" name="Web Server Basics">
    <mxGraphModel dx="794" dy="519" grid="1" gridSize="10" guides="1" tooltips="1" connect="1" arrows="1" fold="1" page="1" pageScale="1" pageWidth="827" pageHeight="1169" math="0" shadow="0">
      <root>
        <mxCell id="0" />
        <mxCell id="1" parent="0" />
      </root>
    </mxGraphModel>
  </diagram>
  <diagram name="Concurrent request handling" id="HxFXNJKx6h3pQ_oN9Vk9">
    <mxGraphModel dx="1985" dy="1298" grid="1" gridSize="10" guides="1" tooltips="1" connect="1" arrows="1" fold="1" page="1" pageScale="1" pageWidth="827" pageHeight="1169" math="0" shadow="0">
      <root>
        <mxCell id="0" />
        <mxCell id="1" parent="0" />
        <mxCell id="6tJd7Bp3pr9ignXYDa5n-2" value="&lt;font style=&quot;font-size: 16px;&quot;&gt;Tomcat&lt;/font&gt;" style="rounded=1;whiteSpace=wrap;html=1;fillColor=#dae8fc;strokeColor=#6c8ebf;horizontal=1;verticalAlign=top;" parent="1" vertex="1">
          <mxGeometry x="400" y="70" width="410" height="280" as="geometry" />
        </mxCell>
        <mxCell id="e1zIWaZsrcoaCL9G_EXH-1" value="request" style="rounded=1;whiteSpace=wrap;html=1;fontSize=14;" parent="1" vertex="1">
          <mxGeometry x="650" y="420" width="80" height="30" as="geometry" />
        </mxCell>
        <mxCell id="e1zIWaZsrcoaCL9G_EXH-2" value="request" style="rounded=1;whiteSpace=wrap;html=1;fontSize=14;" parent="1" vertex="1">
          <mxGeometry x="420" y="420" width="80" height="30" as="geometry" />
        </mxCell>
        <mxCell id="e1zIWaZsrcoaCL9G_EXH-3" value="request" style="rounded=1;whiteSpace=wrap;html=1;fontSize=14;" parent="1" vertex="1">
          <mxGeometry x="750" y="420" width="80" height="30" as="geometry" />
        </mxCell>
        <mxCell id="e1zIWaZsrcoaCL9G_EXH-4" value="request" style="rounded=1;whiteSpace=wrap;html=1;fontSize=14;" parent="1" vertex="1">
          <mxGeometry x="530" y="420" width="80" height="30" as="geometry" />
        </mxCell>
        <mxCell id="e1zIWaZsrcoaCL9G_EXH-5" value="&lt;font style=&quot;font-size: 16px;&quot;&gt;thread pool&lt;/font&gt;" style="rounded=1;whiteSpace=wrap;html=1;fillColor=#d5e8d4;strokeColor=#82b366;horizontal=1;verticalAlign=top;" parent="1" vertex="1">
          <mxGeometry x="470" y="160" width="320" height="170" as="geometry" />
        </mxCell>
        <mxCell id="e1zIWaZsrcoaCL9G_EXH-11" value="" style="group" parent="1" vertex="1" connectable="0">
          <mxGeometry x="500" y="200" width="40" height="105" as="geometry" />
        </mxCell>
        <mxCell id="e1zIWaZsrcoaCL9G_EXH-6" value="" style="rounded=1;whiteSpace=wrap;html=1;fillColor=#f5f5f5;strokeColor=#666666;fontColor=#333333;" parent="e1zIWaZsrcoaCL9G_EXH-11" vertex="1">
          <mxGeometry x="5" width="30" height="105" as="geometry" />
        </mxCell>
        <mxCell id="e1zIWaZsrcoaCL9G_EXH-7" value="" style="curved=1;endArrow=none;html=1;rounded=0;endFill=0;strokeWidth=3;fillColor=#d5e8d4;strokeColor=#82b366;" parent="e1zIWaZsrcoaCL9G_EXH-11" edge="1">
          <mxGeometry width="50" height="50" relative="1" as="geometry">
            <mxPoint x="20" y="97.5" as="sourcePoint" />
            <mxPoint x="30" y="7.5" as="targetPoint" />
            <Array as="points">
              <mxPoint x="40" y="67.5" />
              <mxPoint y="37.5" />
            </Array>
          </mxGeometry>
        </mxCell>
        <mxCell id="e1zIWaZsrcoaCL9G_EXH-23" value="nio-8080-exec-0" style="text;whiteSpace=wrap;horizontal=0;fontSize=10;verticalAlign=middle;" parent="e1zIWaZsrcoaCL9G_EXH-11" vertex="1">
          <mxGeometry x="-17" width="25" height="100" as="geometry" />
        </mxCell>
        <mxCell id="e1zIWaZsrcoaCL9G_EXH-21" value="&lt;b&gt;&lt;font style=&quot;font-size: 17px;&quot;&gt;......&lt;/font&gt;&lt;/b&gt;" style="text;html=1;align=center;verticalAlign=middle;whiteSpace=wrap;rounded=0;fontColor=#8DC26F;" parent="1" vertex="1">
          <mxGeometry x="670" y="237.5" width="60" height="30" as="geometry" />
        </mxCell>
        <mxCell id="e1zIWaZsrcoaCL9G_EXH-26" value="" style="group" parent="1" vertex="1" connectable="0">
          <mxGeometry x="564" y="200" width="40" height="105" as="geometry" />
        </mxCell>
        <mxCell id="e1zIWaZsrcoaCL9G_EXH-27" value="" style="rounded=1;whiteSpace=wrap;html=1;fillColor=#f5f5f5;strokeColor=#666666;fontColor=#333333;" parent="e1zIWaZsrcoaCL9G_EXH-26" vertex="1">
          <mxGeometry x="5" width="30" height="105" as="geometry" />
        </mxCell>
        <mxCell id="e1zIWaZsrcoaCL9G_EXH-28" value="" style="curved=1;endArrow=none;html=1;rounded=0;endFill=0;strokeWidth=3;fillColor=#d5e8d4;strokeColor=#82b366;" parent="e1zIWaZsrcoaCL9G_EXH-26" edge="1">
          <mxGeometry width="50" height="50" relative="1" as="geometry">
            <mxPoint x="20" y="97.5" as="sourcePoint" />
            <mxPoint x="30" y="7.5" as="targetPoint" />
            <Array as="points">
              <mxPoint x="40" y="67.5" />
              <mxPoint y="37.5" />
            </Array>
          </mxGeometry>
        </mxCell>
        <mxCell id="e1zIWaZsrcoaCL9G_EXH-29" value="nio-8080-exec-1" style="text;whiteSpace=wrap;horizontal=0;fontSize=10;verticalAlign=middle;" parent="e1zIWaZsrcoaCL9G_EXH-26" vertex="1">
          <mxGeometry x="-17" width="25" height="100" as="geometry" />
        </mxCell>
        <mxCell id="e1zIWaZsrcoaCL9G_EXH-30" value="" style="group" parent="1" vertex="1" connectable="0">
          <mxGeometry x="630" y="200" width="40" height="105" as="geometry" />
        </mxCell>
        <mxCell id="e1zIWaZsrcoaCL9G_EXH-31" value="" style="rounded=1;whiteSpace=wrap;html=1;fillColor=#f5f5f5;strokeColor=#666666;fontColor=#333333;" parent="e1zIWaZsrcoaCL9G_EXH-30" vertex="1">
          <mxGeometry x="5" width="30" height="105" as="geometry" />
        </mxCell>
        <mxCell id="e1zIWaZsrcoaCL9G_EXH-32" value="" style="curved=1;endArrow=none;html=1;rounded=0;endFill=0;strokeWidth=3;fillColor=#d5e8d4;strokeColor=#82b366;" parent="e1zIWaZsrcoaCL9G_EXH-30" edge="1">
          <mxGeometry width="50" height="50" relative="1" as="geometry">
            <mxPoint x="20" y="97.5" as="sourcePoint" />
            <mxPoint x="30" y="7.5" as="targetPoint" />
            <Array as="points">
              <mxPoint x="40" y="67.5" />
              <mxPoint y="37.5" />
            </Array>
          </mxGeometry>
        </mxCell>
        <mxCell id="e1zIWaZsrcoaCL9G_EXH-33" value="nio-8080-exec-2" style="text;whiteSpace=wrap;horizontal=0;fontSize=10;verticalAlign=middle;" parent="e1zIWaZsrcoaCL9G_EXH-30" vertex="1">
          <mxGeometry x="-17" width="25" height="100" as="geometry" />
        </mxCell>
        <mxCell id="e1zIWaZsrcoaCL9G_EXH-34" value="" style="group" parent="1" vertex="1" connectable="0">
          <mxGeometry x="740" y="200" width="40" height="105" as="geometry" />
        </mxCell>
        <mxCell id="e1zIWaZsrcoaCL9G_EXH-35" value="" style="rounded=1;whiteSpace=wrap;html=1;fillColor=#f5f5f5;strokeColor=#666666;fontColor=#333333;" parent="e1zIWaZsrcoaCL9G_EXH-34" vertex="1">
          <mxGeometry x="5" width="30" height="105" as="geometry" />
        </mxCell>
        <mxCell id="e1zIWaZsrcoaCL9G_EXH-36" value="" style="curved=1;endArrow=none;html=1;rounded=0;endFill=0;strokeWidth=3;fillColor=#d5e8d4;strokeColor=#82b366;" parent="e1zIWaZsrcoaCL9G_EXH-34" edge="1">
          <mxGeometry width="50" height="50" relative="1" as="geometry">
            <mxPoint x="20" y="97.5" as="sourcePoint" />
            <mxPoint x="30" y="7.5" as="targetPoint" />
            <Array as="points">
              <mxPoint x="40" y="67.5" />
              <mxPoint y="37.5" />
            </Array>
          </mxGeometry>
        </mxCell>
        <mxCell id="e1zIWaZsrcoaCL9G_EXH-37" value="nio-8080-exec-199" style="text;whiteSpace=wrap;horizontal=0;fontSize=10;verticalAlign=middle;" parent="e1zIWaZsrcoaCL9G_EXH-34" vertex="1">
          <mxGeometry x="-17" width="25" height="100" as="geometry" />
        </mxCell>
        <mxCell id="e1zIWaZsrcoaCL9G_EXH-38" style="rounded=0;orthogonalLoop=1;jettySize=auto;html=1;exitX=0.5;exitY=0;exitDx=0;exitDy=0;entryX=0.5;entryY=1;entryDx=0;entryDy=0;strokeWidth=2;" parent="1" source="e1zIWaZsrcoaCL9G_EXH-2" target="e1zIWaZsrcoaCL9G_EXH-6" edge="1">
          <mxGeometry relative="1" as="geometry" />
        </mxCell>
        <mxCell id="e1zIWaZsrcoaCL9G_EXH-39" style="rounded=0;orthogonalLoop=1;jettySize=auto;html=1;exitX=0.5;exitY=0;exitDx=0;exitDy=0;entryX=0.5;entryY=1;entryDx=0;entryDy=0;strokeWidth=2;" parent="1" source="e1zIWaZsrcoaCL9G_EXH-4" target="e1zIWaZsrcoaCL9G_EXH-27" edge="1">
          <mxGeometry relative="1" as="geometry">
            <mxPoint x="415" y="400" as="sourcePoint" />
            <mxPoint x="530" y="315" as="targetPoint" />
          </mxGeometry>
        </mxCell>
        <mxCell id="e1zIWaZsrcoaCL9G_EXH-40" style="rounded=0;orthogonalLoop=1;jettySize=auto;html=1;exitX=0.5;exitY=0;exitDx=0;exitDy=0;entryX=0.5;entryY=1;entryDx=0;entryDy=0;strokeWidth=2;" parent="1" source="e1zIWaZsrcoaCL9G_EXH-1" target="e1zIWaZsrcoaCL9G_EXH-31" edge="1">
          <mxGeometry relative="1" as="geometry">
            <mxPoint x="425" y="410" as="sourcePoint" />
            <mxPoint x="540" y="325" as="targetPoint" />
          </mxGeometry>
        </mxCell>
        <mxCell id="e1zIWaZsrcoaCL9G_EXH-41" style="rounded=0;orthogonalLoop=1;jettySize=auto;html=1;exitX=0.5;exitY=0;exitDx=0;exitDy=0;entryX=0.914;entryY=1.002;entryDx=0;entryDy=0;entryPerimeter=0;fillColor=#f8cecc;strokeColor=#b85450;strokeWidth=2;" parent="1" source="e1zIWaZsrcoaCL9G_EXH-3" target="6tJd7Bp3pr9ignXYDa5n-2" edge="1">
          <mxGeometry relative="1" as="geometry">
            <mxPoint x="435" y="420" as="sourcePoint" />
            <mxPoint x="550" y="335" as="targetPoint" />
          </mxGeometry>
        </mxCell>
        <mxCell id="e1zIWaZsrcoaCL9G_EXH-42" value="" style="shape=cross;whiteSpace=wrap;html=1;rotation=45;fillColor=#f8cecc;strokeColor=#b85450;" parent="1" vertex="1">
          <mxGeometry x="755.11" y="370.89" width="24.35" height="24.35" as="geometry" />
        </mxCell>
        <mxCell id="e1zIWaZsrcoaCL9G_EXH-44" value="&lt;div style=&quot;text-align: center;&quot;&gt;&lt;span style=&quot;background-color: initial; font-size: 14px;&quot;&gt;&lt;b&gt;&lt;font color=&quot;#ff6666&quot;&gt;REJECTED&lt;/font&gt;&lt;/b&gt;&lt;/span&gt;&lt;/div&gt;" style="text;whiteSpace=wrap;html=1;" parent="1" vertex="1">
          <mxGeometry x="790" y="370.89" width="80" height="40" as="geometry" />
        </mxCell>
        <mxCell id="e1zIWaZsrcoaCL9G_EXH-45" value="" style="endArrow=classic;html=1;rounded=0;strokeWidth=2;" parent="1" edge="1">
          <mxGeometry width="50" height="50" relative="1" as="geometry">
            <mxPoint x="370" y="500" as="sourcePoint" />
            <mxPoint x="370" y="890" as="targetPoint" />
          </mxGeometry>
        </mxCell>
        <mxCell id="e1zIWaZsrcoaCL9G_EXH-46" value="&lt;div style=&quot;text-align: center;&quot;&gt;&lt;span style=&quot;font-size: 14px;&quot;&gt;&lt;b style=&quot;&quot;&gt;&lt;font color=&quot;#660000&quot;&gt;Timeline&lt;/font&gt;&lt;/b&gt;&lt;/span&gt;&lt;/div&gt;" style="text;whiteSpace=wrap;html=1;" parent="1" vertex="1">
          <mxGeometry x="300" y="780" width="70" height="40" as="geometry" />
        </mxCell>
        <mxCell id="e1zIWaZsrcoaCL9G_EXH-47" value="" style="endArrow=none;html=1;rounded=0;strokeWidth=1;exitX=0.5;exitY=1;exitDx=0;exitDy=0;dashed=1;endFill=0;" parent="1" source="e1zIWaZsrcoaCL9G_EXH-94" edge="1">
          <mxGeometry width="50" height="50" relative="1" as="geometry">
            <mxPoint x="454.5" y="490" as="sourcePoint" />
            <mxPoint x="455" y="950" as="targetPoint" />
          </mxGeometry>
        </mxCell>
        <mxCell id="e1zIWaZsrcoaCL9G_EXH-50" value="" style="endArrow=none;html=1;rounded=0;strokeWidth=1;exitX=0.5;exitY=1;exitDx=0;exitDy=0;dashed=1;endFill=0;" parent="1" source="e1zIWaZsrcoaCL9G_EXH-127" edge="1">
          <mxGeometry width="50" height="50" relative="1" as="geometry">
            <mxPoint x="790" y="490" as="sourcePoint" />
            <mxPoint x="790" y="600" as="targetPoint" />
          </mxGeometry>
        </mxCell>
        <mxCell id="e1zIWaZsrcoaCL9G_EXH-51" value="&lt;div style=&quot;text-align: center; font-size: 11px;&quot;&gt;&lt;span style=&quot;background-color: initial; font-size: 11px;&quot;&gt;&lt;b style=&quot;font-size: 11px;&quot;&gt;&lt;font style=&quot;font-size: 11px;&quot;&gt;REQUEST&lt;/font&gt;&lt;/b&gt;&lt;/span&gt;&lt;/div&gt;" style="text;whiteSpace=wrap;html=1;fontColor=default;fontSize=11;" parent="1" vertex="1">
          <mxGeometry x="465" y="490" width="80" height="40" as="geometry" />
        </mxCell>
        <mxCell id="e1zIWaZsrcoaCL9G_EXH-57" value="&lt;div style=&quot;text-align: center; font-size: 11px;&quot;&gt;&lt;span style=&quot;background-color: initial; font-size: 11px;&quot;&gt;&lt;b style=&quot;font-size: 11px;&quot;&gt;&lt;font style=&quot;font-size: 11px;&quot;&gt;REQUEST&lt;/font&gt;&lt;/b&gt;&lt;/span&gt;&lt;/div&gt;" style="text;whiteSpace=wrap;html=1;fontColor=default;fontSize=11;" parent="1" vertex="1">
          <mxGeometry x="800" y="490" width="80" height="40" as="geometry" />
        </mxCell>
        <mxCell id="e1zIWaZsrcoaCL9G_EXH-58" value="&lt;div style=&quot;text-align: center; font-size: 11px;&quot;&gt;&lt;span style=&quot;background-color: initial; font-size: 11px;&quot;&gt;&lt;b style=&quot;font-size: 11px;&quot;&gt;&lt;font style=&quot;font-size: 11px;&quot;&gt;CONNECTED&lt;/font&gt;&lt;/b&gt;&lt;/span&gt;&lt;/div&gt;" style="text;whiteSpace=wrap;html=1;fontColor=default;fontSize=11;" parent="1" vertex="1">
          <mxGeometry x="465" y="520" width="70" height="30" as="geometry" />
        </mxCell>
        <mxCell id="e1zIWaZsrcoaCL9G_EXH-60" value="&lt;div style=&quot;text-align: center; font-size: 11px;&quot;&gt;&lt;span style=&quot;background-color: initial; font-size: 11px;&quot;&gt;&lt;b style=&quot;font-size: 11px;&quot;&gt;&lt;font style=&quot;font-size: 11px;&quot;&gt;PROCESSING&lt;/font&gt;&lt;/b&gt;&lt;/span&gt;&lt;/div&gt;" style="text;whiteSpace=wrap;html=1;fontColor=default;fontSize=11;" parent="1" vertex="1">
          <mxGeometry x="465" y="580" width="70" height="30" as="geometry" />
        </mxCell>
        <mxCell id="e1zIWaZsrcoaCL9G_EXH-62" value="" style="endArrow=none;html=1;rounded=0;strokeWidth=1;exitX=0.5;exitY=1;exitDx=0;exitDy=0;dashed=1;endFill=0;" parent="1" target="e1zIWaZsrcoaCL9G_EXH-61" edge="1">
          <mxGeometry width="50" height="50" relative="1" as="geometry">
            <mxPoint x="454.5" y="490" as="sourcePoint" />
            <mxPoint x="454.5" y="810" as="targetPoint" />
          </mxGeometry>
        </mxCell>
        <mxCell id="e1zIWaZsrcoaCL9G_EXH-61" value="" style="rounded=1;whiteSpace=wrap;html=1;fillColor=#fff2cc;strokeColor=#d6b656;" parent="1" vertex="1">
          <mxGeometry x="450" y="495" width="10" height="35" as="geometry" />
        </mxCell>
        <mxCell id="e1zIWaZsrcoaCL9G_EXH-65" value="" style="endArrow=none;html=1;rounded=0;strokeWidth=1;exitX=0.5;exitY=1;exitDx=0;exitDy=0;dashed=1;endFill=0;" parent="1" source="e1zIWaZsrcoaCL9G_EXH-61" target="e1zIWaZsrcoaCL9G_EXH-63" edge="1">
          <mxGeometry width="50" height="50" relative="1" as="geometry">
            <mxPoint x="455" y="530" as="sourcePoint" />
            <mxPoint x="454.5" y="810" as="targetPoint" />
          </mxGeometry>
        </mxCell>
        <mxCell id="e1zIWaZsrcoaCL9G_EXH-63" value="" style="rounded=1;whiteSpace=wrap;html=1;fillColor=#dae8fc;strokeColor=#6c8ebf;" parent="1" vertex="1">
          <mxGeometry x="450" y="540" width="10" height="120" as="geometry" />
        </mxCell>
        <mxCell id="e1zIWaZsrcoaCL9G_EXH-69" value="" style="endArrow=none;html=1;rounded=0;strokeWidth=1;exitX=0.5;exitY=1;exitDx=0;exitDy=0;dashed=1;endFill=0;" parent="1" source="e1zIWaZsrcoaCL9G_EXH-63" target="e1zIWaZsrcoaCL9G_EXH-67" edge="1">
          <mxGeometry width="50" height="50" relative="1" as="geometry">
            <mxPoint x="455" y="660" as="sourcePoint" />
            <mxPoint x="454.5" y="810" as="targetPoint" />
          </mxGeometry>
        </mxCell>
        <mxCell id="e1zIWaZsrcoaCL9G_EXH-67" value="" style="rounded=1;whiteSpace=wrap;html=1;fillColor=#d5e8d4;strokeColor=#82b366;" parent="1" vertex="1">
          <mxGeometry x="450" y="670" width="10" height="140" as="geometry" />
        </mxCell>
        <mxCell id="e1zIWaZsrcoaCL9G_EXH-70" value="&lt;div style=&quot;text-align: center; font-size: 11px;&quot;&gt;&lt;span style=&quot;background-color: initial; font-size: 11px;&quot;&gt;&lt;b style=&quot;font-size: 11px;&quot;&gt;&lt;font style=&quot;font-size: 11px;&quot;&gt;RESPONSE&lt;/font&gt;&lt;/b&gt;&lt;/span&gt;&lt;/div&gt;" style="text;whiteSpace=wrap;html=1;fontColor=default;fontSize=11;" parent="1" vertex="1">
          <mxGeometry x="465" y="650" width="80" height="40" as="geometry" />
        </mxCell>
        <mxCell id="e1zIWaZsrcoaCL9G_EXH-82" value="" style="endArrow=none;html=1;rounded=0;strokeWidth=1;exitX=0.5;exitY=1;exitDx=0;exitDy=0;dashed=1;endFill=0;" parent="1" source="e1zIWaZsrcoaCL9G_EXH-124" edge="1">
          <mxGeometry width="50" height="50" relative="1" as="geometry">
            <mxPoint x="683.79" y="490" as="sourcePoint" />
            <mxPoint x="683.29" y="1210.4597420528016" as="targetPoint" />
          </mxGeometry>
        </mxCell>
        <mxCell id="e1zIWaZsrcoaCL9G_EXH-83" value="&lt;div style=&quot;text-align: center; font-size: 11px;&quot;&gt;&lt;span style=&quot;background-color: initial; font-size: 11px;&quot;&gt;&lt;b style=&quot;font-size: 11px;&quot;&gt;&lt;font style=&quot;font-size: 11px;&quot;&gt;REQUEST&lt;/font&gt;&lt;/b&gt;&lt;/span&gt;&lt;/div&gt;" style="text;whiteSpace=wrap;html=1;fontColor=default;fontSize=11;" parent="1" vertex="1">
          <mxGeometry x="694.29" y="490" width="80" height="40" as="geometry" />
        </mxCell>
        <mxCell id="e1zIWaZsrcoaCL9G_EXH-84" value="&lt;div style=&quot;text-align: center; font-size: 11px;&quot;&gt;&lt;span style=&quot;background-color: initial; font-size: 11px;&quot;&gt;&lt;b style=&quot;font-size: 11px;&quot;&gt;&lt;font style=&quot;font-size: 11px;&quot;&gt;ACCEPTED&lt;/font&gt;&lt;/b&gt;&lt;/span&gt;&lt;/div&gt;" style="text;whiteSpace=wrap;html=1;fontColor=default;fontSize=11;" parent="1" vertex="1">
          <mxGeometry x="694.29" y="520" width="70" height="30" as="geometry" />
        </mxCell>
        <mxCell id="e1zIWaZsrcoaCL9G_EXH-85" value="&lt;div style=&quot;text-align: center; font-size: 11px;&quot;&gt;&lt;span style=&quot;background-color: initial; font-size: 11px;&quot;&gt;&lt;b style=&quot;font-size: 11px;&quot;&gt;&lt;font style=&quot;font-size: 11px;&quot;&gt;WAITING&lt;/font&gt;&lt;/b&gt;&lt;/span&gt;&lt;/div&gt;" style="text;whiteSpace=wrap;html=1;fontColor=default;fontSize=11;" parent="1" vertex="1">
          <mxGeometry x="694.29" y="680" width="70" height="30" as="geometry" />
        </mxCell>
        <mxCell id="e1zIWaZsrcoaCL9G_EXH-86" value="" style="endArrow=none;html=1;rounded=0;strokeWidth=1;exitX=0.5;exitY=1;exitDx=0;exitDy=0;dashed=1;endFill=0;" parent="1" target="e1zIWaZsrcoaCL9G_EXH-87" edge="1">
          <mxGeometry width="50" height="50" relative="1" as="geometry">
            <mxPoint x="683.79" y="490" as="sourcePoint" />
            <mxPoint x="683.79" y="810" as="targetPoint" />
          </mxGeometry>
        </mxCell>
        <mxCell id="e1zIWaZsrcoaCL9G_EXH-87" value="" style="rounded=1;whiteSpace=wrap;html=1;fillColor=#fff2cc;strokeColor=#d6b656;" parent="1" vertex="1">
          <mxGeometry x="679.29" y="495" width="10" height="35" as="geometry" />
        </mxCell>
        <mxCell id="e1zIWaZsrcoaCL9G_EXH-88" value="" style="endArrow=none;html=1;rounded=0;strokeWidth=1;exitX=0.5;exitY=1;exitDx=0;exitDy=0;dashed=1;endFill=0;" parent="1" source="e1zIWaZsrcoaCL9G_EXH-87" target="e1zIWaZsrcoaCL9G_EXH-89" edge="1">
          <mxGeometry width="50" height="50" relative="1" as="geometry">
            <mxPoint x="684.29" y="530" as="sourcePoint" />
            <mxPoint x="683.79" y="810" as="targetPoint" />
          </mxGeometry>
        </mxCell>
        <mxCell id="e1zIWaZsrcoaCL9G_EXH-89" value="" style="rounded=1;whiteSpace=wrap;html=1;fillColor=#f8cecc;strokeColor=#b85450;" parent="1" vertex="1">
          <mxGeometry x="679.29" y="540" width="10" height="310" as="geometry" />
        </mxCell>
        <mxCell id="e1zIWaZsrcoaCL9G_EXH-90" value="" style="endArrow=none;html=1;rounded=0;strokeWidth=1;exitX=0.5;exitY=1;exitDx=0;exitDy=0;dashed=1;endFill=0;" parent="1" source="e1zIWaZsrcoaCL9G_EXH-119" target="e1zIWaZsrcoaCL9G_EXH-91" edge="1">
          <mxGeometry width="50" height="50" relative="1" as="geometry">
            <mxPoint x="684.29" y="660" as="sourcePoint" />
            <mxPoint x="683.79" y="810" as="targetPoint" />
          </mxGeometry>
        </mxCell>
        <mxCell id="e1zIWaZsrcoaCL9G_EXH-91" value="" style="rounded=1;whiteSpace=wrap;html=1;fillColor=#d5e8d4;strokeColor=#82b366;" parent="1" vertex="1">
          <mxGeometry x="679.29" y="990" width="10" height="140" as="geometry" />
        </mxCell>
        <mxCell id="e1zIWaZsrcoaCL9G_EXH-93" value="&lt;div style=&quot;font-size: 11px;&quot;&gt;&lt;span style=&quot;background-color: initial; font-size: 11px;&quot;&gt;&lt;b style=&quot;font-size: 11px;&quot;&gt;&lt;font style=&quot;font-size: 11px;&quot;&gt;CONNECTION&lt;/font&gt;&lt;/b&gt;&lt;/span&gt;&lt;/div&gt;&lt;div style=&quot;font-size: 11px;&quot;&gt;&lt;span style=&quot;background-color: initial; font-size: 11px;&quot;&gt;&lt;b style=&quot;font-size: 11px;&quot;&gt;&lt;font style=&quot;font-size: 11px;&quot;&gt;KEEP-ALIVE&lt;/font&gt;&lt;/b&gt;&lt;/span&gt;&lt;/div&gt;" style="text;whiteSpace=wrap;html=1;fontColor=default;fontSize=11;align=left;" parent="1" vertex="1">
          <mxGeometry x="465" y="730" width="80" height="40" as="geometry" />
        </mxCell>
        <mxCell id="e1zIWaZsrcoaCL9G_EXH-96" value="" style="endArrow=none;html=1;rounded=0;strokeWidth=1;exitX=0.5;exitY=1;exitDx=0;exitDy=0;dashed=1;endFill=0;" parent="1" source="e1zIWaZsrcoaCL9G_EXH-67" target="e1zIWaZsrcoaCL9G_EXH-94" edge="1">
          <mxGeometry width="50" height="50" relative="1" as="geometry">
            <mxPoint x="455" y="810" as="sourcePoint" />
            <mxPoint x="455" y="950" as="targetPoint" />
          </mxGeometry>
        </mxCell>
        <mxCell id="e1zIWaZsrcoaCL9G_EXH-94" value="" style="rounded=1;whiteSpace=wrap;html=1;fillColor=#fff2cc;strokeColor=#d6b656;" parent="1" vertex="1">
          <mxGeometry x="450" y="820" width="10" height="35" as="geometry" />
        </mxCell>
        <mxCell id="e1zIWaZsrcoaCL9G_EXH-97" value="&lt;div style=&quot;font-size: 11px;&quot;&gt;&lt;b&gt;DISCONNECTED&lt;/b&gt;&lt;/div&gt;" style="text;whiteSpace=wrap;html=1;fontColor=default;fontSize=11;align=left;" parent="1" vertex="1">
          <mxGeometry x="465" y="830" width="80" height="40" as="geometry" />
        </mxCell>
        <mxCell id="e1zIWaZsrcoaCL9G_EXH-98" value="" style="endArrow=none;html=1;rounded=0;strokeWidth=1;exitX=0.5;exitY=1;exitDx=0;exitDy=0;dashed=1;endFill=0;" parent="1" source="e1zIWaZsrcoaCL9G_EXH-115" edge="1">
          <mxGeometry width="50" height="50" relative="1" as="geometry">
            <mxPoint x="568.9200000000001" y="490" as="sourcePoint" />
            <mxPoint x="569.4200000000001" y="950" as="targetPoint" />
          </mxGeometry>
        </mxCell>
        <mxCell id="e1zIWaZsrcoaCL9G_EXH-99" value="&lt;div style=&quot;text-align: center; font-size: 11px;&quot;&gt;&lt;span style=&quot;background-color: initial; font-size: 11px;&quot;&gt;&lt;b style=&quot;font-size: 11px;&quot;&gt;&lt;font style=&quot;font-size: 11px;&quot;&gt;REQUEST&lt;/font&gt;&lt;/b&gt;&lt;/span&gt;&lt;/div&gt;" style="text;whiteSpace=wrap;html=1;fontColor=default;fontSize=11;" parent="1" vertex="1">
          <mxGeometry x="579.4200000000001" y="490" width="80" height="40" as="geometry" />
        </mxCell>
        <mxCell id="e1zIWaZsrcoaCL9G_EXH-100" value="&lt;div style=&quot;text-align: center; font-size: 11px;&quot;&gt;&lt;span style=&quot;background-color: initial; font-size: 11px;&quot;&gt;&lt;b style=&quot;font-size: 11px;&quot;&gt;&lt;font style=&quot;font-size: 11px;&quot;&gt;CONNECTED&lt;/font&gt;&lt;/b&gt;&lt;/span&gt;&lt;/div&gt;" style="text;whiteSpace=wrap;html=1;fontColor=default;fontSize=11;" parent="1" vertex="1">
          <mxGeometry x="579.4200000000001" y="520" width="70" height="30" as="geometry" />
        </mxCell>
        <mxCell id="e1zIWaZsrcoaCL9G_EXH-101" value="&lt;div style=&quot;text-align: center; font-size: 11px;&quot;&gt;&lt;span style=&quot;background-color: initial; font-size: 11px;&quot;&gt;&lt;b style=&quot;font-size: 11px;&quot;&gt;&lt;font style=&quot;font-size: 11px;&quot;&gt;PROCESSING&lt;/font&gt;&lt;/b&gt;&lt;/span&gt;&lt;/div&gt;" style="text;whiteSpace=wrap;html=1;fontColor=default;fontSize=11;" parent="1" vertex="1">
          <mxGeometry x="579.4200000000001" y="580" width="70" height="30" as="geometry" />
        </mxCell>
        <mxCell id="e1zIWaZsrcoaCL9G_EXH-102" value="" style="endArrow=none;html=1;rounded=0;strokeWidth=1;exitX=0.5;exitY=1;exitDx=0;exitDy=0;dashed=1;endFill=0;" parent="1" target="e1zIWaZsrcoaCL9G_EXH-103" edge="1">
          <mxGeometry width="50" height="50" relative="1" as="geometry">
            <mxPoint x="568.9200000000001" y="490" as="sourcePoint" />
            <mxPoint x="568.9200000000001" y="810" as="targetPoint" />
          </mxGeometry>
        </mxCell>
        <mxCell id="e1zIWaZsrcoaCL9G_EXH-103" value="" style="rounded=1;whiteSpace=wrap;html=1;fillColor=#fff2cc;strokeColor=#d6b656;" parent="1" vertex="1">
          <mxGeometry x="564.4200000000001" y="495" width="10" height="35" as="geometry" />
        </mxCell>
        <mxCell id="e1zIWaZsrcoaCL9G_EXH-104" value="" style="endArrow=none;html=1;rounded=0;strokeWidth=1;exitX=0.5;exitY=1;exitDx=0;exitDy=0;dashed=1;endFill=0;" parent="1" source="e1zIWaZsrcoaCL9G_EXH-103" target="e1zIWaZsrcoaCL9G_EXH-105" edge="1">
          <mxGeometry width="50" height="50" relative="1" as="geometry">
            <mxPoint x="569.4200000000001" y="530" as="sourcePoint" />
            <mxPoint x="568.9200000000001" y="810" as="targetPoint" />
          </mxGeometry>
        </mxCell>
        <mxCell id="e1zIWaZsrcoaCL9G_EXH-105" value="" style="rounded=1;whiteSpace=wrap;html=1;fillColor=#dae8fc;strokeColor=#6c8ebf;" parent="1" vertex="1">
          <mxGeometry x="564.4200000000001" y="540" width="10" height="120" as="geometry" />
        </mxCell>
        <mxCell id="e1zIWaZsrcoaCL9G_EXH-106" value="" style="endArrow=none;html=1;rounded=0;strokeWidth=1;exitX=0.5;exitY=1;exitDx=0;exitDy=0;dashed=1;endFill=0;" parent="1" source="e1zIWaZsrcoaCL9G_EXH-105" target="e1zIWaZsrcoaCL9G_EXH-107" edge="1">
          <mxGeometry width="50" height="50" relative="1" as="geometry">
            <mxPoint x="569.4200000000001" y="660" as="sourcePoint" />
            <mxPoint x="568.9200000000001" y="810" as="targetPoint" />
          </mxGeometry>
        </mxCell>
        <mxCell id="e1zIWaZsrcoaCL9G_EXH-107" value="" style="rounded=1;whiteSpace=wrap;html=1;fillColor=#d5e8d4;strokeColor=#82b366;" parent="1" vertex="1">
          <mxGeometry x="564.4200000000001" y="670" width="10" height="140" as="geometry" />
        </mxCell>
        <mxCell id="e1zIWaZsrcoaCL9G_EXH-108" value="&lt;div style=&quot;text-align: center; font-size: 11px;&quot;&gt;&lt;span style=&quot;background-color: initial; font-size: 11px;&quot;&gt;&lt;b style=&quot;font-size: 11px;&quot;&gt;&lt;font style=&quot;font-size: 11px;&quot;&gt;RESPONSE&lt;/font&gt;&lt;/b&gt;&lt;/span&gt;&lt;/div&gt;" style="text;whiteSpace=wrap;html=1;fontColor=default;fontSize=11;" parent="1" vertex="1">
          <mxGeometry x="579.4200000000001" y="650" width="80" height="40" as="geometry" />
        </mxCell>
        <mxCell id="e1zIWaZsrcoaCL9G_EXH-113" value="&lt;div style=&quot;font-size: 11px;&quot;&gt;&lt;span style=&quot;background-color: initial; font-size: 11px;&quot;&gt;&lt;b style=&quot;font-size: 11px;&quot;&gt;&lt;font style=&quot;font-size: 11px;&quot;&gt;CONNECTION&lt;/font&gt;&lt;/b&gt;&lt;/span&gt;&lt;/div&gt;&lt;div style=&quot;font-size: 11px;&quot;&gt;&lt;span style=&quot;background-color: initial; font-size: 11px;&quot;&gt;&lt;b style=&quot;font-size: 11px;&quot;&gt;&lt;font style=&quot;font-size: 11px;&quot;&gt;KEEP-ALIVE&lt;/font&gt;&lt;/b&gt;&lt;/span&gt;&lt;/div&gt;" style="text;whiteSpace=wrap;html=1;fontColor=default;fontSize=11;align=left;" parent="1" vertex="1">
          <mxGeometry x="579.4200000000001" y="730" width="80" height="40" as="geometry" />
        </mxCell>
        <mxCell id="e1zIWaZsrcoaCL9G_EXH-114" value="" style="endArrow=none;html=1;rounded=0;strokeWidth=1;exitX=0.5;exitY=1;exitDx=0;exitDy=0;dashed=1;endFill=0;" parent="1" source="e1zIWaZsrcoaCL9G_EXH-107" target="e1zIWaZsrcoaCL9G_EXH-115" edge="1">
          <mxGeometry width="50" height="50" relative="1" as="geometry">
            <mxPoint x="569.4200000000001" y="810" as="sourcePoint" />
            <mxPoint x="569.4200000000001" y="950" as="targetPoint" />
          </mxGeometry>
        </mxCell>
        <mxCell id="e1zIWaZsrcoaCL9G_EXH-115" value="" style="rounded=1;whiteSpace=wrap;html=1;fillColor=#fff2cc;strokeColor=#d6b656;" parent="1" vertex="1">
          <mxGeometry x="564.4200000000001" y="820" width="10" height="35" as="geometry" />
        </mxCell>
        <mxCell id="e1zIWaZsrcoaCL9G_EXH-116" value="&lt;div style=&quot;font-size: 11px;&quot;&gt;&lt;b&gt;DISCONNECTED&lt;/b&gt;&lt;/div&gt;" style="text;whiteSpace=wrap;html=1;fontColor=default;fontSize=11;align=left;" parent="1" vertex="1">
          <mxGeometry x="579.4200000000001" y="830" width="80" height="40" as="geometry" />
        </mxCell>
        <mxCell id="e1zIWaZsrcoaCL9G_EXH-120" value="" style="endArrow=none;html=1;rounded=0;strokeWidth=1;exitX=0.5;exitY=1;exitDx=0;exitDy=0;dashed=1;endFill=0;" parent="1" source="e1zIWaZsrcoaCL9G_EXH-89" target="e1zIWaZsrcoaCL9G_EXH-119" edge="1">
          <mxGeometry width="50" height="50" relative="1" as="geometry">
            <mxPoint x="684" y="850" as="sourcePoint" />
            <mxPoint x="684" y="1060" as="targetPoint" />
          </mxGeometry>
        </mxCell>
        <mxCell id="e1zIWaZsrcoaCL9G_EXH-119" value="" style="rounded=1;whiteSpace=wrap;html=1;fillColor=#dae8fc;strokeColor=#6c8ebf;" parent="1" vertex="1">
          <mxGeometry x="679.29" y="860" width="10" height="120" as="geometry" />
        </mxCell>
        <mxCell id="e1zIWaZsrcoaCL9G_EXH-121" value="&lt;div style=&quot;text-align: center; font-size: 11px;&quot;&gt;&lt;span style=&quot;background-color: initial; font-size: 11px;&quot;&gt;&lt;b style=&quot;font-size: 11px;&quot;&gt;&lt;font style=&quot;font-size: 11px;&quot;&gt;PROCESSING&lt;/font&gt;&lt;/b&gt;&lt;/span&gt;&lt;/div&gt;" style="text;whiteSpace=wrap;html=1;fontColor=default;fontSize=11;" parent="1" vertex="1">
          <mxGeometry x="694.2900000000001" y="900" width="70" height="30" as="geometry" />
        </mxCell>
        <mxCell id="e1zIWaZsrcoaCL9G_EXH-122" value="&lt;div style=&quot;text-align: center; font-size: 11px;&quot;&gt;&lt;span style=&quot;background-color: initial; font-size: 11px;&quot;&gt;&lt;b style=&quot;font-size: 11px;&quot;&gt;&lt;font style=&quot;font-size: 11px;&quot;&gt;RESPONSE&lt;/font&gt;&lt;/b&gt;&lt;/span&gt;&lt;/div&gt;" style="text;whiteSpace=wrap;html=1;fontColor=default;fontSize=11;" parent="1" vertex="1">
          <mxGeometry x="694.2900000000001" y="970" width="80" height="40" as="geometry" />
        </mxCell>
        <mxCell id="e1zIWaZsrcoaCL9G_EXH-123" value="&lt;div style=&quot;font-size: 11px;&quot;&gt;&lt;span style=&quot;background-color: initial; font-size: 11px;&quot;&gt;&lt;b style=&quot;font-size: 11px;&quot;&gt;&lt;font style=&quot;font-size: 11px;&quot;&gt;CONNECTION&lt;/font&gt;&lt;/b&gt;&lt;/span&gt;&lt;/div&gt;&lt;div style=&quot;font-size: 11px;&quot;&gt;&lt;span style=&quot;background-color: initial; font-size: 11px;&quot;&gt;&lt;b style=&quot;font-size: 11px;&quot;&gt;&lt;font style=&quot;font-size: 11px;&quot;&gt;KEEP-ALIVE&lt;/font&gt;&lt;/b&gt;&lt;/span&gt;&lt;/div&gt;" style="text;whiteSpace=wrap;html=1;fontColor=default;fontSize=11;align=left;" parent="1" vertex="1">
          <mxGeometry x="694.2900000000001" y="1050" width="80" height="40" as="geometry" />
        </mxCell>
        <mxCell id="e1zIWaZsrcoaCL9G_EXH-125" value="&lt;div style=&quot;font-size: 11px;&quot;&gt;&lt;b&gt;DISCONNECTED&lt;/b&gt;&lt;/div&gt;" style="text;whiteSpace=wrap;html=1;fontColor=default;fontSize=11;align=left;" parent="1" vertex="1">
          <mxGeometry x="694.29" y="1150" width="80" height="40" as="geometry" />
        </mxCell>
        <mxCell id="e1zIWaZsrcoaCL9G_EXH-126" value="" style="endArrow=none;html=1;rounded=0;strokeWidth=1;exitX=0.5;exitY=1;exitDx=0;exitDy=0;dashed=1;endFill=0;" parent="1" source="e1zIWaZsrcoaCL9G_EXH-91" target="e1zIWaZsrcoaCL9G_EXH-124" edge="1">
          <mxGeometry width="50" height="50" relative="1" as="geometry">
            <mxPoint x="684" y="1130" as="sourcePoint" />
            <mxPoint x="683.29" y="1210.4597420528016" as="targetPoint" />
          </mxGeometry>
        </mxCell>
        <mxCell id="e1zIWaZsrcoaCL9G_EXH-124" value="" style="rounded=1;whiteSpace=wrap;html=1;fillColor=#fff2cc;strokeColor=#d6b656;" parent="1" vertex="1">
          <mxGeometry x="679.29" y="1140" width="10" height="35" as="geometry" />
        </mxCell>
        <mxCell id="e1zIWaZsrcoaCL9G_EXH-128" value="" style="endArrow=none;html=1;rounded=0;strokeWidth=1;exitX=0.5;exitY=1;exitDx=0;exitDy=0;dashed=1;endFill=0;" parent="1" target="e1zIWaZsrcoaCL9G_EXH-127" edge="1">
          <mxGeometry width="50" height="50" relative="1" as="geometry">
            <mxPoint x="790" y="490" as="sourcePoint" />
            <mxPoint x="790" y="810" as="targetPoint" />
          </mxGeometry>
        </mxCell>
        <mxCell id="e1zIWaZsrcoaCL9G_EXH-127" value="" style="rounded=1;whiteSpace=wrap;html=1;fillColor=#fff2cc;strokeColor=#d6b656;" parent="1" vertex="1">
          <mxGeometry x="785" y="495" width="10" height="35" as="geometry" />
        </mxCell>
        <mxCell id="e1zIWaZsrcoaCL9G_EXH-129" value="&lt;div style=&quot;text-align: center; font-size: 11px;&quot;&gt;&lt;span style=&quot;background-color: initial; font-size: 11px;&quot;&gt;&lt;b style=&quot;font-size: 11px;&quot;&gt;&lt;font style=&quot;font-size: 11px;&quot;&gt;REJECTED&lt;/font&gt;&lt;/b&gt;&lt;/span&gt;&lt;/div&gt;" style="text;whiteSpace=wrap;html=1;fontColor=default;fontSize=11;" parent="1" vertex="1">
          <mxGeometry x="800" y="520" width="70" height="30" as="geometry" />
        </mxCell>
        <UserObject label="&lt;div style=&quot;color: rgb(8, 8, 8);&quot;&gt;&lt;pre style=&quot;font-family:&#39;JetBrains Mono&#39;,monospace;font-size:12.0pt;&quot;&gt;&lt;b&gt;&lt;span style=&quot;color:#8c8c8c;font-style:italic;&quot;&gt;# Max simultaneous connections&lt;br&gt;&lt;/span&gt;server.tomcat.max-connections&lt;span style=&quot;font-size: 12pt; white-space: normal;&quot;&gt;=&lt;/span&gt;&lt;span style=&quot;font-size: 12pt; white-space: normal; color: rgb(6, 125, 23);&quot;&gt;2&lt;/span&gt;&lt;/b&gt;&lt;/pre&gt;&lt;pre style=&quot;font-family:&#39;JetBrains Mono&#39;,monospace;font-size:12.0pt;&quot;&gt;&lt;b&gt;&lt;span style=&quot;color:#067d17;&quot;&gt;&lt;br&gt;&lt;/span&gt;&lt;span style=&quot;color:#8c8c8c;font-style:italic;&quot;&gt;# Waiting queue size&lt;br&gt;&lt;/span&gt;&lt;span style=&quot;color:#083080;&quot;&gt;server.tomcat.accept-count&lt;/span&gt;=&lt;span style=&quot;color:#067d17;&quot;&gt;1&lt;/span&gt;&lt;/b&gt;&lt;/pre&gt;&lt;/div&gt;" link="&lt;div style=&quot;background-color:#ffffff;color:#080808&quot;&gt;&lt;pre style=&quot;font-family:&#39;JetBrains Mono&#39;,monospace;font-size:12.0pt;&quot;&gt;&lt;span style=&quot;color:#8c8c8c;font-style:italic;&quot;&gt;# Max simultaneous connections&lt;br&gt;&lt;/span&gt;&lt;span style=&quot;color:#8c8c8c;font-style:italic;&quot;&gt;# (Note: this is NOT the same as Tomcat thread pool size. Tomcat may have a pool of 200 threads, but only allows 2 connections, although not practical)&lt;br&gt;&lt;/span&gt;&lt;span style=&quot;color:#083080;&quot;&gt;server.tomcat.max-connections&lt;/span&gt;=&lt;span style=&quot;color:#067d17;&quot;&gt;2&lt;br&gt;&lt;/span&gt;&lt;span style=&quot;color:#067d17;&quot;&gt;&lt;br&gt;&lt;/span&gt;&lt;span style=&quot;color:#8c8c8c;font-style:italic;&quot;&gt;# Waiting queue size&lt;br&gt;&lt;/span&gt;&lt;span style=&quot;color:#083080;&quot;&gt;server.tomcat.accept-count&lt;/span&gt;=&lt;span style=&quot;color:#067d17;&quot;&gt;1&lt;/span&gt;&lt;/pre&gt;&lt;/div&gt;" id="e1zIWaZsrcoaCL9G_EXH-130">
          <mxCell style="text;whiteSpace=wrap;html=1;fillColor=#dae8fc;strokeColor=#6c8ebf;labelBackgroundColor=none;" parent="1" vertex="1">
            <mxGeometry x="70" y="135.44" width="270" height="149.11" as="geometry" />
          </mxCell>
        </UserObject>
        <mxCell id="MA8G0dOW9uJb1qfZ065z-1" value="&lt;h3 class=&quot;md-end-block md-heading&quot; style=&quot;box-sizing: border-box; white-space: pre-wrap; break-after: avoid-page; break-inside: avoid; orphans: 4; font-size: 1.5em; margin-top: 1rem; margin-bottom: 1rem; position: relative; font-weight: bold; line-height: 1.43; cursor: text; color: rgb(51, 51, 51); font-family: &amp;quot;Open Sans&amp;quot;, &amp;quot;Clear Sans&amp;quot;, &amp;quot;Helvetica Neue&amp;quot;, Helvetica, Arial, &amp;quot;Segoe UI Emoji&amp;quot;, sans-serif; font-style: normal; font-variant-ligatures: normal; font-variant-caps: normal; letter-spacing: normal; text-align: start; text-indent: 0px; text-transform: none; widows: 2; word-spacing: 0px; -webkit-text-stroke-width: 0px; text-decoration-thickness: initial; text-decoration-style: initial; text-decoration-color: initial;&quot;&gt;&lt;span class=&quot;md-plain&quot; style=&quot;box-sizing: border-box;&quot;&gt;When concurrent requests hit Tomcat...&lt;/span&gt;&lt;/h3&gt;" style="text;whiteSpace=wrap;html=1;" vertex="1" parent="1">
          <mxGeometry x="50" y="30" width="370" height="80" as="geometry" />
        </mxCell>
      </root>
    </mxGraphModel>
  </diagram>
</mxfile>
